<svg width="64" height="64" viewBox="0 0 48 48" xmlns="http://www.w3.org/2000/svg">
  <defs>
    <linearGradient id="bg-phone-green" x1="0" y1="0" x2="1" y2="1">
      <stop offset="0%" stop-color="#10b981"></stop>
      <stop offset="100%" stop-color="#34d399"></stop>
    </linearGradient>
  </defs>

  <!-- Fondo -->
  <rect width="48" height="48" rx="12" fill="url(#bg-phone-green)"></rect>

  <!-- Teléfono -->
  <path d="M16 12C16 10.9 16.9 10 18 10H21C22.1 10 23 10.9 23 12V14C23 15 22.3 15.8 21.3 16L20 16.3C21.5 19 23.9 21.5 26.7 23L27 21.7C27.2 20.7 28 20 29 20H32C33.1 20 34 20.9 34 22V26C34 27.1 33.1 28 32 28C23.7 28 16 20.3 16 12Z" fill="white"></path>
</svg>